<mxfile host="app.diagrams.net" agent="Mozilla/5.0 (Windows NT 10.0; Win64; x64) AppleWebKit/537.36 (KHTML, like Gecko) Chrome/130.0.0.0 Safari/537.36" version="24.8.3">
  <diagram name="Page-1" id="_QrAipWwlbKtGb5KN1ov">
    <mxGraphModel dx="1323" dy="743" grid="1" gridSize="10" guides="1" tooltips="1" connect="1" arrows="1" fold="1" page="1" pageScale="1" pageWidth="850" pageHeight="1100" background="#ffffff" math="0" shadow="0">
      <root>
        <mxCell id="0" />
        <mxCell id="1" parent="0" />
        <mxCell id="CDd5myfO8UQW1dvVeYE9-20" value="" style="edgeStyle=orthogonalEdgeStyle;rounded=0;orthogonalLoop=1;jettySize=auto;html=1;" parent="1" source="CDd5myfO8UQW1dvVeYE9-18" target="CDd5myfO8UQW1dvVeYE9-19" edge="1">
          <mxGeometry relative="1" as="geometry" />
        </mxCell>
        <mxCell id="CDd5myfO8UQW1dvVeYE9-18" value="Cookies consent form" style="rounded=1;whiteSpace=wrap;html=1;fillColor=#d5e8d4;strokeColor=#82b366;" parent="1" vertex="1">
          <mxGeometry x="380" width="120" height="60" as="geometry" />
        </mxCell>
        <mxCell id="CDd5myfO8UQW1dvVeYE9-26" value="" style="edgeStyle=orthogonalEdgeStyle;rounded=0;orthogonalLoop=1;jettySize=auto;html=1;" parent="1" source="CDd5myfO8UQW1dvVeYE9-19" target="CDd5myfO8UQW1dvVeYE9-25" edge="1">
          <mxGeometry relative="1" as="geometry" />
        </mxCell>
        <mxCell id="CDd5myfO8UQW1dvVeYE9-28" value="" style="edgeStyle=orthogonalEdgeStyle;rounded=0;orthogonalLoop=1;jettySize=auto;html=1;" parent="1" source="CDd5myfO8UQW1dvVeYE9-19" target="CDd5myfO8UQW1dvVeYE9-27" edge="1">
          <mxGeometry relative="1" as="geometry" />
        </mxCell>
        <mxCell id="CDd5myfO8UQW1dvVeYE9-55" style="edgeStyle=orthogonalEdgeStyle;rounded=0;orthogonalLoop=1;jettySize=auto;html=1;exitX=0.5;exitY=1;exitDx=0;exitDy=0;entryX=0.5;entryY=0;entryDx=0;entryDy=0;" parent="1" source="CDd5myfO8UQW1dvVeYE9-19" target="CDd5myfO8UQW1dvVeYE9-54" edge="1">
          <mxGeometry relative="1" as="geometry" />
        </mxCell>
        <mxCell id="CDd5myfO8UQW1dvVeYE9-19" value="Greeting" style="whiteSpace=wrap;html=1;rounded=1;fillColor=#fff2cc;strokeColor=#d6b656;" parent="1" vertex="1">
          <mxGeometry x="380" y="80" width="120" height="60" as="geometry" />
        </mxCell>
        <mxCell id="CDd5myfO8UQW1dvVeYE9-72" value="" style="edgeStyle=orthogonalEdgeStyle;rounded=0;orthogonalLoop=1;jettySize=auto;html=1;" parent="1" source="CDd5myfO8UQW1dvVeYE9-25" target="CDd5myfO8UQW1dvVeYE9-71" edge="1">
          <mxGeometry relative="1" as="geometry" />
        </mxCell>
        <mxCell id="CDd5myfO8UQW1dvVeYE9-73" value="" style="edgeStyle=orthogonalEdgeStyle;rounded=0;orthogonalLoop=1;jettySize=auto;html=1;" parent="1" source="CDd5myfO8UQW1dvVeYE9-25" target="CDd5myfO8UQW1dvVeYE9-71" edge="1">
          <mxGeometry relative="1" as="geometry" />
        </mxCell>
        <mxCell id="CDd5myfO8UQW1dvVeYE9-75" value="" style="edgeStyle=orthogonalEdgeStyle;rounded=0;orthogonalLoop=1;jettySize=auto;html=1;" parent="1" source="CDd5myfO8UQW1dvVeYE9-25" target="CDd5myfO8UQW1dvVeYE9-74" edge="1">
          <mxGeometry relative="1" as="geometry" />
        </mxCell>
        <mxCell id="CDd5myfO8UQW1dvVeYE9-25" value="University Life" style="whiteSpace=wrap;html=1;rounded=1;fillColor=#dae8fc;strokeColor=#6c8ebf;" parent="1" vertex="1">
          <mxGeometry x="650" y="180" width="120" height="60" as="geometry" />
        </mxCell>
        <mxCell id="CDd5myfO8UQW1dvVeYE9-30" value="" style="edgeStyle=orthogonalEdgeStyle;rounded=0;orthogonalLoop=1;jettySize=auto;html=1;" parent="1" source="CDd5myfO8UQW1dvVeYE9-39" edge="1">
          <mxGeometry relative="1" as="geometry">
            <mxPoint x="200" y="280" as="targetPoint" />
          </mxGeometry>
        </mxCell>
        <mxCell id="CDd5myfO8UQW1dvVeYE9-27" value="SkillsBuild Courses" style="whiteSpace=wrap;html=1;rounded=1;fillColor=#dae8fc;strokeColor=#6c8ebf;" parent="1" vertex="1">
          <mxGeometry x="140" y="180" width="120" height="60" as="geometry" />
        </mxCell>
        <mxCell id="CDd5myfO8UQW1dvVeYE9-42" value="" style="edgeStyle=orthogonalEdgeStyle;rounded=0;orthogonalLoop=1;jettySize=auto;html=1;" parent="1" source="CDd5myfO8UQW1dvVeYE9-39" target="CDd5myfO8UQW1dvVeYE9-41" edge="1">
          <mxGeometry relative="1" as="geometry" />
        </mxCell>
        <mxCell id="CDd5myfO8UQW1dvVeYE9-44" value="" style="edgeStyle=orthogonalEdgeStyle;rounded=0;orthogonalLoop=1;jettySize=auto;html=1;" parent="1" source="CDd5myfO8UQW1dvVeYE9-39" target="CDd5myfO8UQW1dvVeYE9-43" edge="1">
          <mxGeometry relative="1" as="geometry" />
        </mxCell>
        <mxCell id="CDd5myfO8UQW1dvVeYE9-46" value="" style="edgeStyle=orthogonalEdgeStyle;rounded=0;orthogonalLoop=1;jettySize=auto;html=1;" parent="1" source="CDd5myfO8UQW1dvVeYE9-45" edge="1">
          <mxGeometry relative="1" as="geometry">
            <mxPoint x="340" y="380" as="targetPoint" />
          </mxGeometry>
        </mxCell>
        <mxCell id="CDd5myfO8UQW1dvVeYE9-49" style="edgeStyle=orthogonalEdgeStyle;rounded=0;orthogonalLoop=1;jettySize=auto;html=1;exitX=0.5;exitY=1;exitDx=0;exitDy=0;entryX=0;entryY=0.5;entryDx=0;entryDy=0;" parent="1" source="CDd5myfO8UQW1dvVeYE9-41" target="CDd5myfO8UQW1dvVeYE9-47" edge="1">
          <mxGeometry relative="1" as="geometry" />
        </mxCell>
        <mxCell id="CDd5myfO8UQW1dvVeYE9-41" value="Beginner (no prior knowledge)" style="whiteSpace=wrap;html=1;rounded=1;" parent="1" vertex="1">
          <mxGeometry y="360" width="120" height="60" as="geometry" />
        </mxCell>
        <mxCell id="CDd5myfO8UQW1dvVeYE9-48" value="" style="edgeStyle=orthogonalEdgeStyle;rounded=0;orthogonalLoop=1;jettySize=auto;html=1;" parent="1" source="CDd5myfO8UQW1dvVeYE9-43" target="CDd5myfO8UQW1dvVeYE9-47" edge="1">
          <mxGeometry relative="1" as="geometry" />
        </mxCell>
        <mxCell id="CDd5myfO8UQW1dvVeYE9-43" value="Intermediate (some prior knowledge)" style="whiteSpace=wrap;html=1;rounded=1;" parent="1" vertex="1">
          <mxGeometry x="140" y="360" width="120" height="60" as="geometry" />
        </mxCell>
        <mxCell id="CDd5myfO8UQW1dvVeYE9-53" style="edgeStyle=orthogonalEdgeStyle;rounded=0;orthogonalLoop=1;jettySize=auto;html=1;exitX=0.5;exitY=1;exitDx=0;exitDy=0;entryX=1;entryY=0.5;entryDx=0;entryDy=0;" parent="1" source="CDd5myfO8UQW1dvVeYE9-45" target="CDd5myfO8UQW1dvVeYE9-47" edge="1">
          <mxGeometry relative="1" as="geometry" />
        </mxCell>
        <mxCell id="CDd5myfO8UQW1dvVeYE9-58" value="" style="edgeStyle=orthogonalEdgeStyle;rounded=0;orthogonalLoop=1;jettySize=auto;html=1;" parent="1" source="CDd5myfO8UQW1dvVeYE9-47" target="CDd5myfO8UQW1dvVeYE9-57" edge="1">
          <mxGeometry relative="1" as="geometry" />
        </mxCell>
        <mxCell id="CDd5myfO8UQW1dvVeYE9-60" value="" style="edgeStyle=orthogonalEdgeStyle;rounded=0;orthogonalLoop=1;jettySize=auto;html=1;" parent="1" source="CDd5myfO8UQW1dvVeYE9-47" target="CDd5myfO8UQW1dvVeYE9-59" edge="1">
          <mxGeometry relative="1" as="geometry" />
        </mxCell>
        <mxCell id="CDd5myfO8UQW1dvVeYE9-61" value="" style="edgeStyle=orthogonalEdgeStyle;rounded=0;orthogonalLoop=1;jettySize=auto;html=1;" parent="1" source="CDd5myfO8UQW1dvVeYE9-47" target="CDd5myfO8UQW1dvVeYE9-59" edge="1">
          <mxGeometry relative="1" as="geometry" />
        </mxCell>
        <mxCell id="CDd5myfO8UQW1dvVeYE9-63" value="" style="edgeStyle=orthogonalEdgeStyle;rounded=0;orthogonalLoop=1;jettySize=auto;html=1;" parent="1" source="CDd5myfO8UQW1dvVeYE9-47" target="CDd5myfO8UQW1dvVeYE9-62" edge="1">
          <mxGeometry relative="1" as="geometry" />
        </mxCell>
        <mxCell id="CDd5myfO8UQW1dvVeYE9-47" value="Asks for duration preferences" style="whiteSpace=wrap;html=1;rounded=1;" parent="1" vertex="1">
          <mxGeometry x="140" y="440" width="120" height="60" as="geometry" />
        </mxCell>
        <mxCell id="CDd5myfO8UQW1dvVeYE9-51" value="" style="edgeStyle=orthogonalEdgeStyle;rounded=0;orthogonalLoop=1;jettySize=auto;html=1;" parent="1" source="CDd5myfO8UQW1dvVeYE9-27" target="CDd5myfO8UQW1dvVeYE9-39" edge="1">
          <mxGeometry relative="1" as="geometry">
            <mxPoint x="220" y="210" as="sourcePoint" />
            <mxPoint x="200" y="280" as="targetPoint" />
          </mxGeometry>
        </mxCell>
        <mxCell id="CDd5myfO8UQW1dvVeYE9-39" value="Asks for areas of interest" style="whiteSpace=wrap;html=1;rounded=1;" parent="1" vertex="1">
          <mxGeometry x="140" y="280" width="120" height="60" as="geometry" />
        </mxCell>
        <mxCell id="CDd5myfO8UQW1dvVeYE9-80" value="" style="edgeStyle=orthogonalEdgeStyle;rounded=0;orthogonalLoop=1;jettySize=auto;html=1;" parent="1" source="CDd5myfO8UQW1dvVeYE9-54" target="CDd5myfO8UQW1dvVeYE9-79" edge="1">
          <mxGeometry relative="1" as="geometry" />
        </mxCell>
        <mxCell id="CDd5myfO8UQW1dvVeYE9-54" value="IBM SkillsBuild Plaform" style="rounded=1;whiteSpace=wrap;html=1;fillColor=#dae8fc;strokeColor=#6c8ebf;" parent="1" vertex="1">
          <mxGeometry x="380" y="180" width="120" height="60" as="geometry" />
        </mxCell>
        <mxCell id="CDd5myfO8UQW1dvVeYE9-56" value="" style="edgeStyle=orthogonalEdgeStyle;rounded=0;orthogonalLoop=1;jettySize=auto;html=1;" parent="1" source="CDd5myfO8UQW1dvVeYE9-39" target="CDd5myfO8UQW1dvVeYE9-45" edge="1">
          <mxGeometry relative="1" as="geometry">
            <mxPoint x="260" y="310" as="sourcePoint" />
            <mxPoint x="340" y="380" as="targetPoint" />
          </mxGeometry>
        </mxCell>
        <mxCell id="CDd5myfO8UQW1dvVeYE9-45" value="Advanced (lots of prior knowledge)" style="whiteSpace=wrap;html=1;rounded=1;" parent="1" vertex="1">
          <mxGeometry x="280" y="360" width="120" height="60" as="geometry" />
        </mxCell>
        <mxCell id="CDd5myfO8UQW1dvVeYE9-65" value="" style="edgeStyle=orthogonalEdgeStyle;rounded=0;orthogonalLoop=1;jettySize=auto;html=1;" parent="1" source="CDd5myfO8UQW1dvVeYE9-57" target="CDd5myfO8UQW1dvVeYE9-64" edge="1">
          <mxGeometry relative="1" as="geometry" />
        </mxCell>
        <mxCell id="CDd5myfO8UQW1dvVeYE9-57" value="Short (1-6 hours)" style="whiteSpace=wrap;html=1;rounded=1;" parent="1" vertex="1">
          <mxGeometry x="20" y="540" width="120" height="60" as="geometry" />
        </mxCell>
        <mxCell id="CDd5myfO8UQW1dvVeYE9-67" style="edgeStyle=orthogonalEdgeStyle;rounded=0;orthogonalLoop=1;jettySize=auto;html=1;exitX=0.5;exitY=1;exitDx=0;exitDy=0;entryX=0.5;entryY=0;entryDx=0;entryDy=0;" parent="1" source="CDd5myfO8UQW1dvVeYE9-59" target="CDd5myfO8UQW1dvVeYE9-64" edge="1">
          <mxGeometry relative="1" as="geometry" />
        </mxCell>
        <mxCell id="CDd5myfO8UQW1dvVeYE9-59" value="Medium (7-15 hours)" style="whiteSpace=wrap;html=1;rounded=1;" parent="1" vertex="1">
          <mxGeometry x="150" y="540" width="100" height="60" as="geometry" />
        </mxCell>
        <mxCell id="CDd5myfO8UQW1dvVeYE9-62" value="Long (16-20+ hours)" style="whiteSpace=wrap;html=1;rounded=1;" parent="1" vertex="1">
          <mxGeometry x="260" y="540" width="120" height="60" as="geometry" />
        </mxCell>
        <mxCell id="CDd5myfO8UQW1dvVeYE9-69" value="" style="edgeStyle=orthogonalEdgeStyle;rounded=0;orthogonalLoop=1;jettySize=auto;html=1;exitX=0.5;exitY=1;exitDx=0;exitDy=0;" parent="1" source="CDd5myfO8UQW1dvVeYE9-62" target="CDd5myfO8UQW1dvVeYE9-64" edge="1">
          <mxGeometry relative="1" as="geometry">
            <mxPoint x="200" y="680" as="targetPoint" />
            <mxPoint x="320" y="600" as="sourcePoint" />
          </mxGeometry>
        </mxCell>
        <mxCell id="CDd5myfO8UQW1dvVeYE9-64" value="Provides a brief description of each course, including prerequisites, duration, and course link" style="whiteSpace=wrap;html=1;rounded=1;" parent="1" vertex="1">
          <mxGeometry x="140" y="640" width="120" height="110" as="geometry" />
        </mxCell>
        <mxCell id="CDd5myfO8UQW1dvVeYE9-77" value="" style="edgeStyle=orthogonalEdgeStyle;rounded=0;orthogonalLoop=1;jettySize=auto;html=1;" parent="1" source="CDd5myfO8UQW1dvVeYE9-71" target="CDd5myfO8UQW1dvVeYE9-76" edge="1">
          <mxGeometry relative="1" as="geometry" />
        </mxCell>
        <mxCell id="CDd5myfO8UQW1dvVeYE9-71" value="Academic Challenges (time management, studying advice...)" style="whiteSpace=wrap;html=1;rounded=1;" parent="1" vertex="1">
          <mxGeometry x="580" y="310" width="120" height="60" as="geometry" />
        </mxCell>
        <mxCell id="CDd5myfO8UQW1dvVeYE9-78" style="edgeStyle=orthogonalEdgeStyle;rounded=0;orthogonalLoop=1;jettySize=auto;html=1;exitX=0.5;exitY=1;exitDx=0;exitDy=0;entryX=0.5;entryY=0;entryDx=0;entryDy=0;" parent="1" source="CDd5myfO8UQW1dvVeYE9-74" target="CDd5myfO8UQW1dvVeYE9-76" edge="1">
          <mxGeometry relative="1" as="geometry" />
        </mxCell>
        <mxCell id="CDd5myfO8UQW1dvVeYE9-74" value="Personal Well-being (social life, mental well-being...)" style="whiteSpace=wrap;html=1;rounded=1;" parent="1" vertex="1">
          <mxGeometry x="730" y="310" width="120" height="60" as="geometry" />
        </mxCell>
        <mxCell id="CDd5myfO8UQW1dvVeYE9-76" value="Offers tips, suggestions, or university resources" style="whiteSpace=wrap;html=1;rounded=1;" parent="1" vertex="1">
          <mxGeometry x="650" y="440" width="120" height="60" as="geometry" />
        </mxCell>
        <mxCell id="CDd5myfO8UQW1dvVeYE9-79" value="Provides guidance, links to support articles, SkillsBuild help pages, or a contact form for users needing direct assistance with platform navigation or account issues" style="whiteSpace=wrap;html=1;rounded=1;" parent="1" vertex="1">
          <mxGeometry x="440" y="300" width="120" height="150" as="geometry" />
        </mxCell>
      </root>
    </mxGraphModel>
  </diagram>
</mxfile>
